<svg xmlns="http://www.w3.org/2000/svg" xmlns:xlink="http://www.w3.org/1999/xlink" width="500" zoomAndPan="magnify" viewBox="0 0 375 374.999991" height="500" preserveAspectRatio="xMidYMid meet" version="1.0"><defs><g/><clipPath id="8cfc2c5db3"><path d="M 73.433594 66.71875 L 296.933594 66.71875 L 296.933594 290.21875 L 73.433594 290.21875 Z M 73.433594 66.71875 " clip-rule="nonzero"/></clipPath><clipPath id="de495f321d"><path d="M 122 132 L 256 132 L 256 250.734375 L 122 250.734375 Z M 122 132 " clip-rule="nonzero"/></clipPath><clipPath id="577e218cb3"><path d="M 123 136 L 255 136 L 255 250.734375 L 123 250.734375 Z M 123 136 " clip-rule="nonzero"/></clipPath><clipPath id="264eb89892"><path d="M 122 148 L 233 148 L 233 250.734375 L 122 250.734375 Z M 122 148 " clip-rule="nonzero"/></clipPath><clipPath id="c6ba60d6cd"><path d="M 120 131.484375 L 256.671875 131.484375 L 256.671875 250.734375 L 120 250.734375 Z M 120 131.484375 " clip-rule="nonzero"/></clipPath><clipPath id="26fddf6898"><path d="M 256 262 L 305 262 L 305 299.132812 L 256 299.132812 Z M 256 262 " clip-rule="nonzero"/></clipPath><clipPath id="3ad58264c7"><path d="M 105 251.132812 L 269 251.132812 L 269 289 L 105 289 Z M 105 251.132812 " clip-rule="nonzero"/></clipPath><clipPath id="8a9bbbca8a"><path d="M 70 262 L 119 262 L 119 299.132812 L 70 299.132812 Z M 70 262 " clip-rule="nonzero"/></clipPath></defs><g clip-path="url(#8cfc2c5db3)"><path fill="#2e0a08" d="M 290.019531 208.265625 C 287.1875 217.910156 282.859375 227.0625 277.492188 235.492188 C 273.058594 242.351562 268.019531 248.796875 262.355469 254.664062 C 261.625 255.464844 260.808594 256.179688 260.027344 256.9375 C 259.238281 257.679688 258.46875 258.445312 257.664062 259.171875 L 255.207031 261.304688 L 253.980469 262.375 L 252.707031 263.386719 L 250.164062 265.417969 C 249.304688 266.074219 248.414062 266.699219 247.542969 267.34375 C 245.816406 268.664062 243.984375 269.824219 242.1875 271.042969 C 241.929688 271.21875 241.65625 271.402344 241.371094 271.59375 C 241.078125 271.769531 240.777344 271.949219 240.457031 272.140625 C 239.824219 272.519531 239.144531 272.929688 238.417969 273.363281 C 236.980469 274.261719 235.285156 275.113281 233.453125 276.085938 C 232.992188 276.324219 232.527344 276.582031 232.039062 276.816406 C 231.550781 277.046875 231.050781 277.277344 230.542969 277.511719 C 229.523438 277.984375 228.46875 278.472656 227.378906 278.976562 C 225.144531 279.847656 222.816406 280.894531 220.277344 281.710938 C 210.253906 285.34375 197.742188 287.589844 185.183594 287.644531 C 172.628906 287.589844 160.117188 285.34375 150.09375 281.710938 C 147.550781 280.894531 145.226562 279.847656 142.992188 278.976562 C 141.902344 278.472656 140.847656 277.984375 139.828125 277.511719 C 139.320312 277.277344 138.820312 277.046875 138.328125 276.816406 C 137.839844 276.585938 137.378906 276.324219 136.917969 276.085938 C 135.085938 275.113281 133.386719 274.261719 131.953125 273.363281 C 131.226562 272.929688 130.546875 272.519531 129.910156 272.140625 C 129.59375 271.953125 129.289062 271.769531 128.996094 271.59375 C 128.714844 271.402344 128.441406 271.21875 128.183594 271.046875 C 121.363281 266.574219 114.953125 261.496094 109.128906 255.792969 C 102.984375 249.65625 97.613281 242.78125 92.878906 235.492188 C 87.507812 227.0625 83.183594 217.910156 80.347656 208.265625 C 77.398438 198.648438 76.035156 188.558594 75.945312 178.46875 C 76.035156 168.375 77.398438 158.285156 80.347656 148.671875 C 83.183594 139.023438 87.507812 129.871094 92.875 121.445312 C 97.308594 114.585938 102.347656 108.136719 108.011719 102.273438 C 108.746094 101.472656 109.5625 100.753906 110.339844 100 C 111.128906 99.257812 111.898438 98.488281 112.707031 97.765625 L 115.160156 95.628906 L 116.386719 94.5625 L 117.660156 93.550781 L 120.203125 91.519531 C 121.066406 90.859375 121.953125 90.238281 122.828125 89.59375 C 124.550781 88.273438 126.386719 87.113281 128.183594 85.890625 C 128.441406 85.714844 128.710938 85.535156 128.996094 85.34375 C 129.289062 85.167969 129.59375 84.984375 129.910156 84.792969 C 130.542969 84.414062 131.226562 84.007812 131.953125 83.574219 C 133.386719 82.671875 135.085938 81.824219 136.917969 80.847656 C 137.378906 80.613281 137.839844 80.351562 138.328125 80.117188 C 138.820312 79.890625 139.316406 79.660156 139.828125 79.421875 C 140.847656 78.953125 141.902344 78.464844 142.992188 77.960938 C 145.222656 77.085938 147.550781 76.039062 150.089844 75.226562 C 160.117188 71.589844 172.628906 69.34375 185.183594 69.292969 C 197.738281 69.34375 210.253906 71.589844 220.277344 75.226562 C 222.816406 76.039062 225.144531 77.085938 227.378906 77.960938 C 228.46875 78.464844 229.523438 78.953125 230.539062 79.421875 C 231.050781 79.660156 231.550781 79.890625 232.039062 80.117188 C 232.527344 80.351562 232.988281 80.613281 233.449219 80.847656 C 235.28125 81.824219 236.980469 82.671875 238.414062 83.574219 C 239.140625 84.007812 239.824219 84.414062 240.457031 84.792969 C 240.773438 84.984375 241.078125 85.167969 241.371094 85.34375 C 241.65625 85.535156 241.925781 85.714844 242.1875 85.890625 C 249.007812 90.359375 255.414062 95.4375 261.242188 101.140625 C 267.382812 107.277344 272.753906 114.152344 277.492188 121.441406 C 282.859375 129.871094 287.1875 139.023438 290.019531 148.671875 C 292.972656 158.285156 294.335938 168.375 294.421875 178.46875 C 294.335938 188.558594 292.972656 198.648438 290.019531 208.265625 Z M 296.933594 178.394531 L 296.929688 178.382812 C 296.839844 168.082031 295.453125 157.769531 292.453125 147.941406 C 289.566406 138.078125 285.144531 128.71875 279.628906 120.121094 L 276.980469 116.136719 C 276.980469 116.136719 276.214844 115.066406 275.066406 113.460938 C 273.960938 111.820312 272.265625 109.800781 270.652344 107.722656 C 268.910156 105.75 267.238281 103.710938 265.832031 102.324219 C 264.46875 100.898438 263.558594 99.949219 263.558594 99.949219 C 263.558594 99.949219 263.328125 99.714844 262.914062 99.316406 C 262.5 98.914062 261.910156 98.34375 261.199219 97.660156 C 259.816406 96.25 257.804688 94.550781 255.835938 92.804688 C 254.824219 91.964844 253.78125 91.160156 252.820312 90.386719 C 252.339844 90.003906 251.871094 89.632812 251.429688 89.28125 C 250.972656 88.949219 250.539062 88.636719 250.136719 88.347656 C 248.535156 87.191406 247.46875 86.425781 247.46875 86.425781 C 247.46875 86.425781 247.238281 86.234375 246.863281 85.992188 C 246.488281 85.742188 245.992188 85.410156 245.496094 85.078125 C 244.503906 84.414062 243.511719 83.75 243.511719 83.75 C 243.246094 83.570312 242.96875 83.382812 242.679688 83.1875 C 242.378906 83.003906 242.070312 82.816406 241.746094 82.621094 C 241.097656 82.230469 240.398438 81.8125 239.660156 81.367188 C 238.191406 80.445312 236.457031 79.570312 234.582031 78.574219 C 234.109375 78.328125 233.636719 78.0625 233.136719 77.824219 C 232.636719 77.589844 232.125 77.351562 231.605469 77.109375 C 230.5625 76.625 229.484375 76.125 228.367188 75.609375 C 226.085938 74.710938 223.703125 73.640625 221.101562 72.804688 C 210.84375 69.078125 198.03125 66.769531 185.183594 66.71875 C 172.335938 66.769531 159.527344 69.078125 149.265625 72.804688 C 146.667969 73.640625 144.285156 74.710938 142 75.609375 C 140.886719 76.125 139.804688 76.625 138.761719 77.109375 C 138.242188 77.351562 137.730469 77.589844 137.230469 77.824219 C 136.730469 78.0625 136.257812 78.328125 135.785156 78.574219 C 133.910156 79.570312 132.175781 80.445312 130.710938 81.367188 C 129.96875 81.8125 129.273438 82.234375 128.621094 82.621094 C 128.300781 82.816406 127.988281 83.007812 127.691406 83.1875 C 127.398438 83.382812 127.121094 83.570312 126.855469 83.75 C 126.855469 83.75 125.863281 84.414062 124.871094 85.078125 C 124.375 85.410156 123.878906 85.742188 123.507812 85.992188 C 123.132812 86.234375 122.898438 86.425781 122.898438 86.425781 C 122.898438 86.425781 121.832031 87.191406 120.230469 88.347656 C 119.832031 88.636719 119.398438 88.949219 118.941406 89.28125 C 118.496094 89.632812 118.03125 90.003906 117.546875 90.386719 C 116.585938 91.160156 115.546875 91.964844 114.535156 92.804688 C 112.5625 94.550781 110.554688 96.25 109.167969 97.660156 C 108.460938 98.34375 107.871094 98.914062 107.457031 99.316406 C 107.039062 99.714844 106.8125 99.949219 106.8125 99.949219 C 106.8125 99.949219 105.902344 100.898438 104.535156 102.324219 C 103.128906 103.710938 101.460938 105.75 99.71875 107.722656 C 98.101562 109.800781 96.40625 111.820312 95.304688 113.460938 C 94.152344 115.066406 93.386719 116.140625 93.386719 116.140625 L 90.738281 120.121094 C 85.226562 128.71875 80.804688 138.078125 77.917969 147.941406 C 74.914062 157.769531 73.527344 168.082031 73.4375 178.386719 L 73.4375 178.394531 L 73.433594 178.46875 L 73.4375 178.542969 L 73.4375 178.550781 C 73.527344 188.855469 74.914062 199.164062 77.917969 208.996094 C 80.804688 218.855469 85.226562 228.21875 90.738281 236.8125 L 93.386719 240.796875 C 93.386719 240.796875 94.15625 241.867188 95.304688 243.476562 C 96.410156 245.113281 98.101562 247.136719 99.71875 249.214844 C 101.460938 251.1875 103.128906 253.222656 104.535156 254.613281 C 105.902344 256.035156 106.8125 256.988281 106.8125 256.988281 C 106.8125 256.988281 107.039062 257.222656 107.457031 257.621094 C 107.871094 258.019531 108.460938 258.59375 109.167969 259.277344 C 110.554688 260.6875 112.5625 262.386719 114.535156 264.128906 C 115.546875 264.96875 116.585938 265.773438 117.546875 266.546875 C 118.03125 266.933594 118.496094 267.304688 118.941406 267.65625 C 119.398438 267.984375 119.832031 268.296875 120.230469 268.585938 C 121.832031 269.742188 122.898438 270.511719 122.898438 270.511719 C 122.898438 270.511719 123.132812 270.699219 123.507812 270.941406 C 123.878906 271.191406 124.375 271.523438 124.871094 271.855469 C 125.863281 272.523438 126.859375 273.1875 126.859375 273.1875 C 127.121094 273.363281 127.398438 273.554688 127.691406 273.746094 C 127.988281 273.929688 128.300781 274.117188 128.625 274.3125 C 129.273438 274.703125 129.96875 275.121094 130.710938 275.566406 C 132.175781 276.492188 133.914062 277.363281 135.789062 278.363281 C 136.257812 278.605469 136.734375 278.875 137.230469 279.113281 C 137.730469 279.347656 138.242188 279.585938 138.761719 279.828125 C 139.804688 280.308594 140.886719 280.808594 142 281.328125 C 144.285156 282.226562 146.667969 283.296875 149.265625 284.132812 C 159.527344 287.859375 172.335938 290.167969 185.183594 290.21875 C 198.03125 290.167969 210.84375 287.859375 221.105469 284.132812 C 223.703125 283.296875 226.085938 282.222656 228.371094 281.324219 C 229.484375 280.808594 230.5625 280.308594 231.605469 279.828125 C 232.125 279.585938 232.636719 279.347656 233.140625 279.113281 C 233.636719 278.875 234.109375 278.605469 234.582031 278.363281 C 236.457031 277.363281 238.191406 276.492188 239.660156 275.566406 C 240.402344 275.121094 241.097656 274.703125 241.746094 274.3125 C 242.070312 274.117188 242.382812 273.929688 242.679688 273.746094 C 242.96875 273.550781 243.246094 273.363281 243.511719 273.1875 C 243.511719 273.1875 244.503906 272.523438 245.496094 271.855469 C 245.992188 271.523438 246.488281 271.191406 246.863281 270.941406 C 247.238281 270.699219 247.46875 270.511719 247.46875 270.511719 C 247.46875 270.511719 248.535156 269.742188 250.136719 268.585938 C 250.539062 268.296875 250.972656 267.984375 251.429688 267.65625 C 251.871094 267.304688 252.339844 266.933594 252.820312 266.546875 C 253.78125 265.773438 254.824219 264.96875 255.835938 264.128906 C 257.804688 262.386719 259.816406 260.6875 261.199219 259.277344 C 261.910156 258.59375 262.5 258.019531 262.914062 257.621094 C 263.328125 257.222656 263.558594 256.988281 263.558594 256.988281 C 263.558594 256.988281 264.46875 256.035156 265.832031 254.613281 C 267.238281 253.222656 268.910156 251.1875 270.652344 249.214844 C 272.265625 247.136719 273.960938 245.113281 275.066406 243.476562 C 276.214844 241.867188 276.980469 240.796875 276.980469 240.796875 L 279.628906 236.8125 C 285.144531 228.21875 289.566406 218.855469 292.453125 208.996094 C 295.453125 199.164062 296.839844 188.855469 296.929688 178.550781 L 296.933594 178.542969 L 296.933594 178.394531 " fill-opacity="1" fill-rule="nonzero"/></g><g clip-path="url(#de495f321d)"><path fill="#ffffff" d="M 255.335938 241.425781 L 254.859375 250.722656 L 221.113281 250.722656 L 221.710938 241.425781 Z M 247.589844 200.683594 C 247.589844 200.683594 248.449219 185.503906 235.71875 169.777344 C 238.636719 155.246094 234.722656 135.777344 231.011719 132.914062 C 223.996094 133.324219 209.347656 138.472656 201.210938 151.421875 C 192.972656 148.480469 181.34375 147.703125 169.617188 150.640625 C 169.617188 150.640625 155.738281 136.019531 139.460938 132.914062 C 131.566406 138.691406 134.039062 166.839844 133.957031 170.378906 C 128.453125 180.21875 107.632812 210.289062 141.855469 231.378906 C 137.308594 243.105469 135.5 250.558594 135.5 250.558594 L 219.878906 250.722656 C 219.878906 250.722656 221.4375 234.230469 223.113281 226.070312 C 224.789062 217.910156 226.347656 204.222656 229.929688 202.621094 C 233.511719 201.015625 236.3125 204.820312 236.3125 204.820312 C 236.3125 204.820312 240.359375 194.859375 243.523438 203.742188 C 242.613281 200.378906 247.589844 200.683594 247.589844 200.683594 Z M 247.589844 200.683594 " fill-opacity="1" fill-rule="nonzero"/></g><path fill="#efb07d" d="M 225.300781 213.34375 C 227.933594 200.019531 233.320312 201.339844 236.3125 204.820312 C 236.789062 200.738281 241.097656 199.417969 243.609375 202.660156 C 253.304688 193.058594 254.859375 221.546875 254.859375 221.546875 L 254.859375 239.984375 C 254.859375 239.984375 252.6875 247.066406 237.808594 247.066406 C 224.824219 247.066406 221.113281 241.304688 221.113281 241.304688 C 221.113281 241.304688 222.667969 226.664062 225.300781 213.34375 Z M 170.035156 150.8125 C 167.164062 146.503906 148.675781 131.484375 139.703125 132.929688 C 129.53125 144.691406 134.4375 170.378906 134.4375 170.378906 C 134.4375 170.378906 126.035156 181.644531 125.035156 192.53125 C 125.359375 200.5625 147.125 214.625 172.011719 193.734375 C 195.660156 173.878906 176.617188 149.613281 176.617188 149.613281 C 176.617188 149.613281 173.386719 149.839844 170.035156 150.8125 Z M 228.980469 139.890625 L 221.113281 155.894531 C 221.113281 155.894531 228.140625 161.734375 229.992188 166.773438 C 231.84375 161.972656 232.335938 149.730469 228.980469 139.890625 Z M 228.980469 139.890625 " fill-opacity="1" fill-rule="nonzero"/><g clip-path="url(#577e218cb3)"><path fill="#ef5454" d="M 254.859375 250.722656 C 254.859375 250.722656 254.859375 250.722656 240.320312 250.722656 C 251.628906 249.695312 253.007812 219.105469 253.007812 219.105469 Z M 148.160156 155.894531 C 148.160156 155.894531 141.933594 142.929688 140.898438 139.890625 C 138.265625 146.292969 137.832031 162.292969 139.882812 166.773438 C 143.921875 161.84375 148.160156 155.894531 148.160156 155.894531 Z M 219.941406 250.722656 C 221.273438 242.355469 223.101562 230.847656 224.574219 221.570312 C 224.566406 221.570312 224.558594 221.574219 224.550781 221.578125 L 226.058594 204.917969 C 225.960938 205.035156 225.839844 205.199219 225.691406 205.414062 C 224.550781 207.066406 221.96875 211.828125 219.882812 223.144531 C 211.339844 225.695312 200.085938 227.449219 185.269531 227.550781 C 127.828125 227.15625 123.917969 201.890625 123.917969 201.890625 C 123.917969 201.890625 122.878906 205.300781 125.085938 210.863281 C 124.441406 210.320312 123.953125 209.886719 123.683594 209.621094 C 125.375 222.382812 141.9375 232.226562 141.9375 232.226562 L 135.5 250.722656 C 135.5 250.722656 142.253906 250.722656 149.59375 250.722656 C 154.0625 236.09375 159.460938 236.480469 159.460938 236.480469 C 170.707031 238.949219 181.503906 239.613281 185.269531 239.613281 C 189.039062 239.613281 199.835938 238.949219 211.082031 236.480469 C 211.082031 236.480469 213.84375 236.285156 217.050781 241.519531 C 215.882812 248.972656 215.507812 250.714844 215.507812 250.714844 Z M 200.902344 151.421875 L 207.527344 153.332031 C 207.527344 153.332031 210 144.40625 220.808594 136.867188 C 213.269531 138.929688 205.132812 144.394531 200.902344 151.421875 Z M 149.207031 136.867188 C 160.019531 144.40625 162.492188 153.332031 162.492188 153.332031 L 169.113281 151.421875 C 164.886719 144.394531 156.746094 138.929688 149.207031 136.867188 Z M 189.640625 207.183594 C 189.640625 207.183594 184.21875 208.433594 179.589844 207.046875 C 180.226562 212.382812 188.046875 212.863281 189.640625 207.183594 Z M 189.640625 207.183594 " fill-opacity="0.298" fill-rule="nonzero"/></g><g clip-path="url(#264eb89892)"><path fill="#ffffff" d="M 135.265625 148.460938 C 135.265625 148.460938 134.054688 165.183594 139.75 173.179688 C 133.71875 177.578125 123.378906 191.867188 123.671875 203.5 C 121.394531 195.941406 124.660156 183.015625 133.675781 171.457031 C 132.761719 164.613281 133.675781 155.203125 135.265625 148.460938 Z M 223.347656 234.914062 C 226.578125 210.878906 232.097656 203.519531 232.097656 203.519531 C 223.015625 201.0625 222.511719 224.222656 223.347656 234.914062 Z M 130.148438 219.105469 C 130.148438 219.105469 141.257812 229.304688 148.078125 230.382812 C 145.328125 233.863281 139.75 250.722656 139.75 250.722656 L 134.796875 250.722656 L 141.257812 231.824219 C 141.257812 231.824219 130.402344 226.433594 130.148438 219.105469 Z M 130.148438 219.105469 " fill-opacity="1" fill-rule="nonzero"/></g><g clip-path="url(#c6ba60d6cd)"><path fill="#2b0806" d="M 256.652344 250.722656 C 255.128906 250.722656 253.125 250.722656 253.125 250.722656 C 253.09375 244.875 254.121094 214.664062 251.0625 204.484375 C 249.445312 199.097656 244.402344 201.671875 243.71875 206.160156 C 243.261719 203.90625 242.742188 201.484375 240.449219 201.726562 C 237.613281 202.019531 236.453125 207.042969 236.453125 207.042969 C 236.453125 207.042969 234.179688 203.382812 232.097656 203.519531 C 228.808594 203.738281 226.644531 208.582031 225.066406 218.898438 C 224.179688 224.695312 221.898438 250.722656 221.898438 250.722656 L 218.964844 250.722656 C 218.964844 250.722656 220.578125 232.78125 221.097656 228.894531 L 221.109375 228.785156 L 221.527344 225.753906 C 222.472656 219.09375 223.527344 213.054688 224.539062 209.234375 C 227.183594 199.289062 233.175781 198.242188 235.878906 203.019531 C 237.265625 197.898438 243.28125 197.042969 243.914062 201.550781 C 244.113281 200.609375 245.050781 199.476562 246.367188 199.003906 C 245.84375 191.324219 242.492188 182.058594 234.414062 170.976562 C 236.179688 167.253906 238.0625 149.75 230.648438 134.371094 C 226.898438 134.371094 214.335938 137.449219 202.207031 150.671875 C 204.269531 151.386719 206.207031 152.261719 207.832031 153.332031 C 207.328125 153.351562 196.25 150.199219 185.175781 150.199219 C 174.097656 150.199219 163.023438 153.351562 162.519531 153.332031 C 164.144531 152.261719 166.082031 151.386719 168.140625 150.671875 C 156.015625 137.449219 143.453125 134.371094 139.703125 134.371094 C 132.285156 149.75 134.171875 167.253906 135.9375 170.976562 C 106.675781 211.128906 139.40625 227.398438 144.070312 231.042969 C 141.4375 236.445312 136.589844 250.722656 136.589844 250.722656 L 133.339844 250.722656 C 133.339844 250.722656 136.484375 240.773438 140.3125 231.890625 C 111.101562 214.664062 120.554688 186.457031 132.523438 171.457031 C 128.933594 150.214844 136.351562 131.96875 139.222656 131.484375 C 158.253906 135.136719 167.976562 146.507812 170.523438 149.925781 C 173.941406 148.964844 179.554688 147.5625 185.175781 147.558594 C 190.785156 147.558594 196.402344 148.960938 199.828125 149.925781 C 202.371094 146.507812 212.097656 135.136719 231.125 131.484375 C 234 131.96875 241.417969 150.214844 237.828125 171.457031 C 243.507812 178.574219 248.613281 188.667969 249.296875 199.148438 C 250.28125 199.585938 251.320312 200.441406 252.339844 201.902344 C 254.242188 204.628906 254.53125 208.148438 255.429688 215.234375 C 256.257812 221.777344 256.652344 246.855469 256.652344 250.722656 Z M 228.980469 139.890625 C 228.980469 139.890625 223.523438 147.636719 219.511719 155.886719 C 222.203125 157.652344 227.734375 163.414062 229.992188 166.773438 C 231.058594 164.855469 225.53125 156.710938 222.714844 155.132812 C 225.644531 152.011719 228.980469 139.890625 228.980469 139.890625 Z M 140.898438 139.890625 C 140.898438 139.890625 146.355469 147.636719 150.367188 155.886719 C 147.675781 157.652344 142.144531 163.414062 139.882812 166.773438 C 138.820312 164.855469 144.347656 156.710938 147.160156 155.132812 C 144.230469 152.011719 140.898438 139.890625 140.898438 139.890625 Z M 156.121094 178.679688 C 150.03125 180.121094 145.902344 186.21875 144.644531 191.273438 C 144.453125 192.042969 144.867188 192.65625 145.71875 192.867188 C 147.101562 193.214844 149.617188 192.507812 149.988281 191.023438 C 150.472656 189.078125 151.292969 187.316406 152.433594 185.78125 C 153.289062 184.625 154.964844 182.628906 156.542969 182.230469 C 157.8125 181.914062 159.027344 183.996094 159.679688 185.113281 L 159.832031 185.378906 C 160.949219 187.269531 161.855469 189.460938 162.515625 191.894531 C 162.75 192.746094 163.585938 193.082031 164.507812 193.082031 C 164.894531 193.082031 165.296875 193.023438 165.675781 192.917969 C 167.226562 192.496094 168.113281 191.484375 167.832031 190.460938 C 165.394531 181.515625 161.34375 177.441406 156.121094 178.679688 Z M 225.226562 190.460938 C 222.789062 181.515625 218.738281 177.441406 213.515625 178.679688 C 207.421875 180.121094 203.296875 186.21875 202.039062 191.273438 C 201.921875 191.742188 202.03125 192.167969 202.34375 192.46875 C 203.003906 193.105469 204.316406 193.023438 205.242188 192.757812 C 206.394531 192.425781 207.191406 191.777344 207.382812 191.023438 C 207.863281 189.078125 208.6875 187.316406 209.824219 185.78125 C 210.683594 184.625 212.359375 182.628906 213.9375 182.230469 C 215.207031 181.914062 216.421875 183.996094 217.074219 185.117188 L 217.226562 185.378906 C 218.34375 187.269531 219.246094 189.460938 219.910156 191.894531 C 220.058594 192.433594 220.488281 192.824219 221.121094 192.992188 C 221.363281 193.054688 221.628906 193.085938 221.902344 193.085938 C 222.929688 193.085938 224.101562 192.664062 224.75 192.007812 C 225.203125 191.546875 225.371094 190.996094 225.226562 190.460938 Z M 193.769531 193.152344 C 193.121094 193.496094 192.816406 194.609375 193.449219 195.800781 C 193.816406 196.492188 193.421875 197.207031 193.15625 197.570312 C 192.460938 198.523438 191.207031 199.101562 190.246094 198.921875 C 188.585938 198.609375 187.589844 196.65625 186.90625 194.988281 C 186.585938 194.210938 185.914062 193.726562 185.152344 193.726562 C 184.394531 193.726562 183.722656 194.210938 183.402344 194.988281 C 182.839844 196.355469 181.792969 198.90625 180.0625 199.230469 C 179.328125 199.367188 178.410156 199.011719 177.675781 198.304688 C 176.59375 197.210938 176.917969 195.785156 177.035156 195.394531 C 177.046875 195.367188 177.054688 195.335938 177.066406 195.296875 L 177.320312 194.621094 L 177.191406 194.621094 C 177.226562 193.917969 176.945312 193.3125 176.441406 193.109375 C 176.011719 192.933594 175.375 193.066406 174.894531 193.972656 C 174 195.65625 173.953125 197.660156 174.761719 199.332031 C 175.515625 200.882812 176.933594 201.949219 178.652344 202.253906 C 181.117188 202.695312 183.355469 201.648438 185.152344 199.230469 C 186.683594 201.289062 188.53125 202.351562 190.566406 202.351562 C 190.925781 202.351562 191.285156 202.320312 191.652344 202.253906 C 193.371094 201.949219 194.789062 200.882812 195.542969 199.332031 C 196.355469 197.660156 196.304688 195.65625 195.410156 193.972656 C 194.890625 192.996094 194.203125 192.921875 193.769531 193.152344 Z M 193.769531 193.152344 " fill-opacity="1" fill-rule="nonzero"/></g><path fill="#ef5454" d="M 239.859375 217.34375 C 238.964844 216.332031 235.386719 213.597656 233.085938 218.0625 C 230.785156 222.527344 237.066406 226.992188 239.859375 226.992188 C 242.65625 226.992188 248.9375 222.527344 246.636719 218.0625 C 244.335938 213.597656 240.753906 216.332031 239.859375 217.34375 Z M 242.054688 209.820312 C 242.054688 208.457031 241.277344 207.355469 240.320312 207.355469 C 239.359375 207.355469 238.582031 208.457031 238.582031 209.820312 C 238.582031 211.183594 239.359375 212.289062 240.320312 212.289062 C 241.277344 212.289062 242.054688 211.183594 242.054688 209.820312 Z M 247.441406 208.835938 C 246.46875 208.6875 245.492188 209.597656 245.265625 210.867188 C 245.035156 212.136719 245.640625 213.285156 246.613281 213.433594 C 247.585938 213.582031 248.558594 212.671875 248.789062 211.402344 C 249.015625 210.132812 248.414062 208.984375 247.441406 208.835938 Z M 233.40625 213.554688 C 234.390625 213.269531 234.828125 212.011719 234.382812 210.742188 C 233.9375 209.476562 232.78125 208.679688 231.796875 208.964844 C 230.8125 209.253906 230.375 210.511719 230.820312 211.777344 C 231.265625 213.046875 232.421875 213.839844 233.40625 213.554688 Z M 233.40625 213.554688 " fill-opacity="1" fill-rule="nonzero"/><g clip-path="url(#26fddf6898)"><path fill="#000000" d="M 272.066406 262.214844 L 272.066406 290.972656 L 256.667969 299.125 L 304.988281 299.125 L 294.9375 280.671875 L 304.988281 262.214844 L 272.066406 262.214844 " fill-opacity="1" fill-rule="nonzero"/></g><path fill="#000000" d="M 252.152344 291.285156 L 252.152344 297.925781 L 264.703125 291.285156 Z M 252.152344 291.285156 " fill-opacity="1" fill-rule="nonzero"/><g clip-path="url(#3ad58264c7)"><path fill="#000000" d="M 268.894531 251.144531 L 105.722656 251.144531 L 105.722656 288.113281 L 268.894531 288.113281 L 268.894531 251.144531 " fill-opacity="1" fill-rule="nonzero"/></g><g clip-path="url(#8a9bbbca8a)"><path fill="#000000" d="M 102.550781 291.285156 L 102.550781 262.214844 L 70.109375 262.222656 L 80.160156 280.671875 L 70.117188 299.132812 L 118.417969 299.117188 L 102.550781 291.285156 " fill-opacity="1" fill-rule="nonzero"/></g><path fill="#000000" d="M 122.984375 297.921875 L 123.035156 291.285156 L 110.238281 291.285156 Z M 122.984375 297.921875 " fill-opacity="1" fill-rule="nonzero"/><g fill="#ffffff" fill-opacity="1"><g transform="translate(109.907865, 279.264739)"><g><path d="M 8.730469 0.175781 C 10.222656 0.175781 11.714844 -0.21875 12.945312 -0.964844 C 14.347656 -1.710938 15.226562 -3.289062 15.226562 -4.871094 C 15.226562 -7.503906 13.558594 -8.996094 10.574219 -10.265625 C 8.511719 -11.234375 6.539062 -12.023438 6.539062 -13.734375 C 6.539062 -15.355469 7.855469 -16.410156 10.179688 -16.410156 C 12.546875 -16.410156 12.242188 -14.699219 13.691406 -14.699219 C 14.347656 -14.699219 15.136719 -15.050781 15.09375 -15.972656 C 14.875 -18.078125 12.460938 -18.910156 10.179688 -18.910156 C 9.390625 -18.910156 8.554688 -18.824219 7.808594 -18.648438 C 5.089844 -18.035156 3.378906 -16.277344 3.378906 -13.644531 C 3.378906 -10.96875 5.351562 -9.125 8.511719 -7.941406 C 10.046875 -7.328125 12.066406 -6.273438 12.066406 -4.828125 C 12.066406 -3.027344 10.398438 -2.324219 8.644531 -2.324219 C 7.722656 -2.324219 6.976562 -2.589844 6.492188 -3.027344 C 5.921875 -3.464844 5.441406 -3.90625 4.914062 -4.429688 C 4.519531 -4.871094 3.816406 -5.175781 3.335938 -5.089844 C 3.160156 -5 3.027344 -4.957031 2.894531 -4.828125 C 2.542969 -4.519531 2.414062 -4.125 2.414062 -3.773438 C 2.414062 -2.632812 3.335938 -2.105469 4.167969 -1.492188 C 5.574219 -0.4375 6.976562 0.175781 8.730469 0.175781 Z M 8.730469 0.175781 "/></g></g></g><g fill="#ffffff" fill-opacity="1"><g transform="translate(128.417034, 279.264739)"><g><path d="M 6.886719 -17.945312 C 6.625 -18.472656 6.097656 -18.777344 5.484375 -18.777344 C 4.695312 -18.777344 4.125 -18.296875 4.125 -17.550781 L 4.125 -17.507812 C 4.125 -17.113281 4.210938 -16.804688 4.257812 -16.410156 L 4.257812 -15.925781 C 4.257812 -15.226562 4.257812 -14.480469 4.210938 -13.734375 C 4.210938 -12.988281 4.167969 -12.242188 4.167969 -11.496094 L 4.035156 -1.800781 C 4.035156 -1.402344 4.035156 -1.230469 4.082031 -0.964844 C 4.210938 -0.351562 4.914062 0.132812 5.660156 0.132812 C 6.144531 0.132812 6.625 -0.0859375 6.933594 -0.4375 C 7.195312 -0.746094 7.195312 -1.097656 7.195312 -1.492188 L 7.195312 -16.453125 C 7.195312 -16.9375 7.109375 -17.375 6.886719 -17.945312 Z M 6.886719 -17.945312 "/></g></g></g><g fill="#ffffff" fill-opacity="1"><g transform="translate(139.557625, 279.264739)"><g><path d="M 8.730469 0.175781 C 10.222656 0.175781 11.714844 -0.21875 12.945312 -0.964844 C 14.347656 -1.710938 15.226562 -3.289062 15.226562 -4.871094 C 15.226562 -7.503906 13.558594 -8.996094 10.574219 -10.265625 C 8.511719 -11.234375 6.539062 -12.023438 6.539062 -13.734375 C 6.539062 -15.355469 7.855469 -16.410156 10.179688 -16.410156 C 12.546875 -16.410156 12.242188 -14.699219 13.691406 -14.699219 C 14.347656 -14.699219 15.136719 -15.050781 15.09375 -15.972656 C 14.875 -18.078125 12.460938 -18.910156 10.179688 -18.910156 C 9.390625 -18.910156 8.554688 -18.824219 7.808594 -18.648438 C 5.089844 -18.035156 3.378906 -16.277344 3.378906 -13.644531 C 3.378906 -10.96875 5.351562 -9.125 8.511719 -7.941406 C 10.046875 -7.328125 12.066406 -6.273438 12.066406 -4.828125 C 12.066406 -3.027344 10.398438 -2.324219 8.644531 -2.324219 C 7.722656 -2.324219 6.976562 -2.589844 6.492188 -3.027344 C 5.921875 -3.464844 5.441406 -3.90625 4.914062 -4.429688 C 4.519531 -4.871094 3.816406 -5.175781 3.335938 -5.089844 C 3.160156 -5 3.027344 -4.957031 2.894531 -4.828125 C 2.542969 -4.519531 2.414062 -4.125 2.414062 -3.773438 C 2.414062 -2.632812 3.335938 -2.105469 4.167969 -1.492188 C 5.574219 -0.4375 6.976562 0.175781 8.730469 0.175781 Z M 8.730469 0.175781 "/></g></g></g><g fill="#ffffff" fill-opacity="1"><g transform="translate(158.066794, 279.264739)"><g><path d="M 19.4375 -19.261719 C 19.351562 -19.964844 18.777344 -20.445312 18.035156 -20.445312 C 17.289062 -20.445312 16.71875 -20.050781 16.496094 -19.4375 C 16.496094 -19.394531 16.320312 -18.910156 16.320312 -18.605469 C 16.320312 -17.726562 16.277344 -16.890625 16.234375 -16.015625 C 16.234375 -15.050781 16.191406 -14.085938 16.148438 -13.121094 C 16.101562 -11.714844 16.058594 -10.3125 16.058594 -8.90625 C 16.058594 -7.855469 16.058594 -6.757812 16.015625 -5.175781 C 15.972656 -4.78125 15.707031 -4.652344 15.488281 -5 C 14.347656 -6.714844 12.636719 -9.125 11.277344 -11.453125 L 9.742188 -14.085938 C 9.125 -15.09375 8.46875 -16.101562 7.765625 -17.199219 C 7.460938 -17.683594 6.582031 -17.988281 5.96875 -17.988281 C 5.046875 -17.988281 4.300781 -17.417969 4.125 -16.628906 C 3.992188 -16.191406 3.949219 -15.707031 3.949219 -15.09375 C 3.949219 -14.960938 4.125 -10.925781 4.125 -10.003906 C 4.125 -7.679688 4.035156 -5.308594 3.949219 -3.027344 C 3.949219 -2.195312 3.992188 -1.84375 4.125 -1.359375 C 4.300781 -0.878906 4.78125 -0.570312 5.398438 -0.570312 C 5.660156 -0.570312 5.96875 -0.65625 6.273438 -0.832031 C 6.714844 -1.140625 6.933594 -1.492188 6.976562 -1.972656 C 7.109375 -5.308594 7.109375 -6.625 7.109375 -9.871094 L 7.109375 -11.453125 C 7.109375 -11.890625 7.414062 -11.933594 7.632812 -11.582031 C 7.722656 -11.40625 7.808594 -11.277344 7.898438 -11.101562 C 9.433594 -8.378906 10.96875 -5.660156 12.945312 -3.070312 C 14.128906 -1.625 14.917969 -0.746094 15.796875 0.0859375 C 16.191406 0.394531 16.671875 0.613281 17.199219 0.613281 C 17.902344 0.613281 18.472656 0.175781 18.777344 -0.527344 C 19.042969 -1.316406 19.128906 -3.597656 19.128906 -4.871094 L 19.128906 -7.855469 C 19.128906 -10.707031 19.175781 -14.128906 19.480469 -17.550781 C 19.523438 -18.078125 19.480469 -18.648438 19.4375 -19.261719 Z M 19.4375 -19.261719 "/></g></g></g><g fill="#ffffff" fill-opacity="1"><g transform="translate(181.488356, 279.264739)"><g><path d="M 10.75 0.703125 C 17.636719 0.394531 19.523438 -3.511719 20.007812 -8.335938 C 20.664062 -14.480469 17.769531 -18.339844 12.328125 -18.605469 C 10.441406 -18.691406 9.257812 -18.777344 7.941406 -18.035156 C 4.78125 -16.453125 2.71875 -12.636719 2.71875 -8.335938 C 2.71875 -2.941406 5.921875 0.703125 10.75 0.703125 Z M 10.882812 -2.019531 C 7.765625 -2.019531 6.011719 -4.429688 6.011719 -8.203125 C 6.011719 -11.976562 7.898438 -15.972656 11.628906 -15.972656 C 14.960938 -15.972656 16.804688 -13.734375 16.804688 -9.519531 C 16.804688 -4.429688 15.269531 -2.195312 10.882812 -2.019531 Z M 10.882812 -2.019531 "/></g></g></g><g fill="#ffffff" fill-opacity="1"><g transform="translate(204.383598, 279.264739)"><g><path d="M 5.96875 -9.871094 C 6.011719 -9.871094 6.054688 -9.871094 6.097656 -9.871094 C 6.316406 -9.828125 6.492188 -9.871094 6.667969 -9.871094 C 8.773438 -9.828125 12.503906 -9.695312 14.566406 -9.917969 C 15.488281 -9.960938 16.101562 -10.574219 16.191406 -11.234375 C 16.234375 -11.539062 16.148438 -11.847656 15.925781 -12.109375 C 15.664062 -12.417969 15.402344 -12.546875 15.050781 -12.59375 L 14.171875 -12.722656 C 12.375 -12.898438 7.898438 -12.898438 5.878906 -12.636719 C 5.792969 -12.636719 5.703125 -12.59375 5.617188 -12.59375 C 5.398438 -12.546875 5.265625 -12.503906 5.089844 -12.417969 C 4.871094 -12.285156 4.695312 -12.109375 4.519531 -11.890625 C 4.386719 -11.714844 4.300781 -11.496094 4.257812 -11.320312 C 4.167969 -10.617188 4.78125 -10.003906 5.96875 -9.871094 Z M 5.96875 -9.871094 "/></g></g></g><g fill="#ffffff" fill-opacity="1"><g transform="translate(222.498023, 279.264739)"><g><path d="M 7.238281 -0.0859375 C 8.554688 -0.0859375 8.554688 -1.84375 8.554688 -5.921875 C 8.601562 -8.292969 8.601562 -11.496094 8.820312 -15.707031 C 8.773438 -16.191406 8.820312 -16.847656 8.863281 -17.507812 C 8.863281 -18.035156 8.90625 -18.558594 8.90625 -19.042969 C 8.863281 -20.710938 8.292969 -21.5 7.109375 -21.542969 C 6.757812 -21.542969 6.449219 -21.410156 6.097656 -21.148438 C 5.527344 -20.621094 5.089844 -20.050781 4.652344 -19.570312 C 3.992188 -18.777344 3.378906 -18.035156 2.457031 -17.417969 C 1.710938 -17.066406 1.273438 -16.320312 1.316406 -15.578125 C 1.316406 -14.875 1.753906 -14.433594 2.414062 -14.433594 C 3.160156 -14.433594 4.125 -14.960938 5.265625 -15.882812 C 5.574219 -16.148438 5.792969 -16.015625 5.792969 -15.664062 L 5.703125 -13.121094 C 5.660156 -11.101562 5.574219 -9.125 5.484375 -7.109375 L 5.484375 -6.800781 C 5.484375 -6.449219 5.484375 -5.921875 5.441406 -5.265625 C 5.398438 -4.476562 5.308594 -3.597656 5.351562 -2.765625 C 5.398438 -1.886719 5.527344 -1.273438 5.703125 -0.832031 C 5.835938 -0.570312 6.011719 -0.394531 6.273438 -0.261719 C 6.449219 -0.21875 6.582031 -0.175781 6.800781 -0.132812 C 6.933594 -0.0859375 7.109375 -0.0859375 7.238281 -0.0859375 Z M 7.238281 -0.0859375 "/></g></g></g><g fill="#ffffff" fill-opacity="1"><g transform="translate(234.252656, 279.264739)"><g><path d="M 9.828125 0.65625 C 14.085938 0.65625 17.507812 -2.808594 17.375 -7.0625 C 17.332031 -7.460938 17.289062 -7.855469 17.199219 -8.292969 C 17.15625 -8.46875 17.15625 -8.644531 17.113281 -8.820312 C 17.113281 -8.863281 17.066406 -8.949219 17.066406 -8.996094 C 16.980469 -9.347656 16.890625 -9.566406 16.671875 -9.917969 C 16.101562 -10.96875 15.53125 -11.671875 14.832031 -12.152344 C 14.609375 -12.328125 14.566406 -12.546875 14.742188 -12.769531 C 15.664062 -13.996094 16.148438 -15.355469 16.101562 -16.71875 C 16.015625 -19.832031 13.03125 -22.15625 9.082031 -22.203125 C 8.773438 -22.203125 8.511719 -22.203125 8.160156 -22.070312 C 5.398438 -21.367188 3.554688 -19 3.640625 -16.367188 C 3.730469 -15.09375 4.167969 -13.996094 4.914062 -12.945312 C 5.089844 -12.722656 5.046875 -12.503906 4.78125 -12.328125 C 3.027344 -11.101562 1.972656 -8.949219 2.019531 -6.539062 C 2.148438 -3.773438 3.6875 -1.449219 6.097656 -0.308594 C 7.371094 0.351562 8.601562 0.65625 9.828125 0.65625 Z M 10.089844 -13.46875 C 8.117188 -13.46875 6.625 -14.785156 6.582031 -16.585938 L 6.582031 -16.671875 C 6.582031 -16.847656 6.625 -17.15625 6.625 -17.15625 C 6.625 -17.332031 6.667969 -17.464844 6.757812 -17.636719 C 7.285156 -18.691406 8.378906 -19.351562 9.742188 -19.351562 C 11.628906 -19.351562 13.207031 -18.164062 13.292969 -16.671875 C 13.339844 -16.367188 13.25 -16.058594 13.164062 -15.707031 C 13.03125 -15.355469 12.945312 -15.09375 12.722656 -14.742188 C 12.242188 -13.953125 11.320312 -13.46875 10.089844 -13.46875 Z M 10.179688 -2.195312 C 7.328125 -2.0625 5 -4.167969 4.914062 -6.886719 C 4.871094 -9.214844 6.40625 -10.660156 9.039062 -10.75 C 9.433594 -10.707031 9.917969 -10.660156 10.355469 -10.660156 C 11.453125 -10.617188 12.460938 -10.574219 13.292969 -9.871094 C 14.085938 -9.171875 14.566406 -8.160156 14.609375 -7.109375 C 14.65625 -4.5625 12.636719 -2.324219 10.179688 -2.195312 Z M 10.179688 -2.195312 "/></g></g></g><g fill="#000000" fill-opacity="1"><g transform="translate(112.461852, 122.02558)"><g><path d="M -1.546875 -1.96875 C -1.703125 -2.46875 -1.726562 -2.789062 -1.625 -2.9375 C -1.46875 -3.09375 -1.242188 -3.175781 -0.953125 -3.1875 C 0.410156 -3.21875 1.515625 -3.726562 2.359375 -4.71875 C 3.015625 -5.476562 3.367188 -6.140625 3.421875 -6.703125 C 3.484375 -7.273438 3.242188 -7.8125 2.703125 -8.3125 C 2.191406 -8.695312 1.703125 -8.816406 1.234375 -8.671875 C 0.765625 -8.523438 0.0664062 -8.164062 -0.859375 -7.59375 C -2.035156 -6.851562 -3.039062 -6.359375 -3.875 -6.109375 C -4.707031 -5.867188 -5.453125 -6.015625 -6.109375 -6.546875 C -6.816406 -7.171875 -7.109375 -8.007812 -6.984375 -9.0625 C -6.867188 -10.125 -6.507812 -11.015625 -5.90625 -11.734375 C -5.175781 -12.578125 -4.535156 -13.117188 -3.984375 -13.359375 C -3.441406 -13.597656 -2.945312 -13.722656 -2.5 -13.734375 C -1.976562 -13.734375 -1.65625 -13.679688 -1.53125 -13.578125 C -1.414062 -13.484375 -1.546875 -13.125 -1.921875 -12.5 C -2.742188 -12.53125 -3.375 -12.390625 -3.8125 -12.078125 C -4.25 -11.765625 -4.675781 -11.363281 -5.09375 -10.875 C -5.65625 -10.195312 -5.9375 -9.59375 -5.9375 -9.0625 C -5.9375 -8.53125 -5.6875 -8.054688 -5.1875 -7.640625 C -4.894531 -7.390625 -4.484375 -7.34375 -3.953125 -7.5 C -3.429688 -7.65625 -2.800781 -7.960938 -2.0625 -8.421875 C -0.8125 -9.296875 0.25 -9.828125 1.125 -10.015625 C 2 -10.203125 2.816406 -9.972656 3.578125 -9.328125 C 4.316406 -8.710938 4.640625 -7.851562 4.546875 -6.75 C 4.453125 -5.65625 4.054688 -4.691406 3.359375 -3.859375 C 2.234375 -2.546875 0.597656 -1.914062 -1.546875 -1.96875 Z M -1.546875 -1.96875 "/></g></g></g><g fill="#000000" fill-opacity="1"><g transform="translate(118.68618, 114.835358)"><g><path d="M 0.8125 -1.15625 L -7.453125 -9.3125 C -7.378906 -9.726562 -7.269531 -10.007812 -7.125 -10.15625 C -6.976562 -10.300781 -6.804688 -10.335938 -6.609375 -10.265625 L 1.5625 -2.1875 C 1.457031 -1.695312 1.335938 -1.382812 1.203125 -1.25 C 1.085938 -1.132812 0.957031 -1.101562 0.8125 -1.15625 Z M 0.8125 -1.15625 "/></g></g></g><g fill="#000000" fill-opacity="1"><g transform="translate(121.501961, 111.818893)"><g><path d="M -1.234375 -2.171875 C -1.316406 -2.691406 -1.296875 -3.019531 -1.171875 -3.15625 C -0.992188 -3.28125 -0.765625 -3.328125 -0.484375 -3.296875 C 0.878906 -3.109375 2.050781 -3.441406 3.03125 -4.296875 C 3.789062 -4.953125 4.242188 -5.554688 4.390625 -6.109375 C 4.535156 -6.671875 4.375 -7.242188 3.90625 -7.828125 C 3.46875 -8.285156 3.003906 -8.476562 2.515625 -8.40625 C 2.035156 -8.332031 1.289062 -8.066406 0.28125 -7.609375 C -0.988281 -7.078125 -2.050781 -6.75 -2.90625 -6.625 C -3.769531 -6.507812 -4.488281 -6.765625 -5.0625 -7.390625 C -5.664062 -8.117188 -5.828125 -8.992188 -5.546875 -10.015625 C -5.273438 -11.046875 -4.785156 -11.867188 -4.078125 -12.484375 C -3.242188 -13.203125 -2.535156 -13.640625 -1.953125 -13.796875 C -1.367188 -13.953125 -0.851562 -14.003906 -0.40625 -13.953125 C 0.101562 -13.878906 0.410156 -13.78125 0.515625 -13.65625 C 0.609375 -13.550781 0.425781 -13.21875 -0.03125 -12.65625 C -0.84375 -12.8125 -1.488281 -12.765625 -1.96875 -12.515625 C -2.457031 -12.273438 -2.941406 -11.941406 -3.421875 -11.515625 C -4.066406 -10.921875 -4.429688 -10.363281 -4.515625 -9.84375 C -4.597656 -9.320312 -4.425781 -8.816406 -4 -8.328125 C -3.75 -8.035156 -3.347656 -7.925781 -2.796875 -8 C -2.253906 -8.070312 -1.582031 -8.285156 -0.78125 -8.640625 C 0.582031 -9.316406 1.710938 -9.679688 2.609375 -9.734375 C 3.503906 -9.796875 4.28125 -9.453125 4.9375 -8.703125 C 5.5625 -7.972656 5.75 -7.070312 5.5 -6 C 5.25 -4.9375 4.71875 -4.039062 3.90625 -3.3125 C 2.59375 -2.1875 0.878906 -1.804688 -1.234375 -2.171875 Z M -1.234375 -2.171875 "/></g></g></g><g fill="#000000" fill-opacity="1"><g transform="translate(128.505423, 105.638826)"><g><path d="M -6.25 -10.1875 L 1.78125 -15.765625 C 2.21875 -15.578125 2.515625 -15.378906 2.671875 -15.171875 C 2.785156 -14.992188 2.75 -14.84375 2.5625 -14.71875 L -0.984375 -12.25 L 4.96875 -3.703125 C 4.800781 -3.453125 4.628906 -3.265625 4.453125 -3.140625 C 4.242188 -2.992188 4.082031 -2.945312 3.96875 -3 L -1.984375 -11.546875 L -5.53125 -9.09375 C -5.9375 -9.195312 -6.21875 -9.347656 -6.375 -9.546875 C -6.46875 -9.703125 -6.425781 -9.914062 -6.25 -10.1875 Z M -6.25 -10.1875 "/></g></g></g><g fill="#000000" fill-opacity="1"><g transform="translate(137.095665, 99.626575)"><g><path d="M -4.421875 -11.171875 L 2.828125 -15.0625 C 3.035156 -15.050781 3.171875 -14.988281 3.234375 -14.875 C 3.347656 -14.664062 3.394531 -14.441406 3.375 -14.203125 L -2.8125 -10.875 L -0.8125 -7.140625 L 4.71875 -10.65625 C 4.90625 -10.675781 5.046875 -10.601562 5.140625 -10.4375 C 5.285156 -10.175781 5.320312 -9.9375 5.25 -9.71875 L -0.3125 -6.203125 L 1.84375 -2.171875 L 7.96875 -5.46875 C 8.113281 -5.457031 8.242188 -5.351562 8.359375 -5.15625 C 8.453125 -4.988281 8.5 -4.785156 8.5 -4.546875 L 1.21875 -0.640625 Z M -4.421875 -11.171875 "/></g></g></g><g fill="#000000" fill-opacity="1"><g transform="translate(146.122447, 94.557187)"><g><path d="M 1.09375 -0.8125 L -2.390625 -11.953125 C -2.085938 -12.234375 -1.78125 -12.429688 -1.46875 -12.546875 C -1.25 -12.628906 -1.035156 -12.625 -0.828125 -12.53125 L 6.5625 -4.390625 L 6.875 -15.375 C 7.226562 -15.6875 7.519531 -15.882812 7.75 -15.96875 C 8.007812 -16.050781 8.238281 -15.96875 8.4375 -15.71875 L 13.09375 -5 C 12.75 -4.78125 12.488281 -4.640625 12.3125 -4.578125 C 12.070312 -4.492188 11.867188 -4.53125 11.703125 -4.6875 L 7.984375 -13.515625 L 7.765625 -3.171875 C 7.660156 -2.941406 7.460938 -2.773438 7.171875 -2.671875 C 6.890625 -2.566406 6.628906 -2.566406 6.390625 -2.671875 L -0.5 -10.3125 L 2.296875 -1.0625 C 2.046875 -0.84375 1.796875 -0.6875 1.546875 -0.59375 C 1.378906 -0.53125 1.226562 -0.601562 1.09375 -0.8125 Z M 1.09375 -0.8125 "/></g></g></g><g fill="#000000" fill-opacity="1"><g transform="translate(159.90081, 89.529276)"><g><path d="M 3.75 -12.078125 L 2.734375 -6.328125 L 6.640625 -7.453125 Z M 7.4375 -6.21875 L 2.46875 -4.78125 L 1.78125 -0.640625 C 1.34375 -0.441406 1.003906 -0.316406 0.765625 -0.265625 C 0.566406 -0.222656 0.40625 -0.253906 0.28125 -0.359375 L 2.3125 -12.578125 C 3.132812 -12.992188 3.707031 -13.238281 4.03125 -13.3125 C 4.28125 -13.363281 4.5 -13.347656 4.6875 -13.265625 L 11.234375 -2.640625 C 10.804688 -2.429688 10.445312 -2.296875 10.15625 -2.234375 C 9.925781 -2.179688 9.796875 -2.207031 9.765625 -2.3125 L 9.765625 -2.328125 Z M 7.4375 -6.21875 "/></g></g></g><g fill="#000000" fill-opacity="1"><g transform="translate(171.051011, 87.237886)"><g/></g></g><g fill="#000000" fill-opacity="1"><g transform="translate(176.21597, 86.447215)"><g><path d="M 9.21875 -6.359375 C 9.15625 -8.210938 8.625 -9.441406 7.625 -10.046875 C 6.632812 -10.660156 5.710938 -10.960938 4.859375 -10.953125 L 2.28125 -10.875 L 2.578125 -1.34375 L 5.140625 -1.421875 C 6.484375 -1.472656 7.507812 -1.992188 8.21875 -2.984375 C 8.925781 -3.984375 9.257812 -5.109375 9.21875 -6.359375 Z M 10.59375 -6.40625 C 10.644531 -4.644531 10.226562 -3.195312 9.34375 -2.0625 C 8.457031 -0.925781 7.070312 -0.320312 5.1875 -0.25 L 1.390625 -0.140625 L 1.015625 -12.03125 L 4.8125 -12.140625 C 6.53125 -12.203125 7.90625 -11.722656 8.9375 -10.703125 C 9.976562 -9.679688 10.53125 -8.25 10.59375 -6.40625 Z M 10.59375 -6.40625 "/></g></g></g><g fill="#000000" fill-opacity="1"><g transform="translate(187.288915, 86.080226)"><g><path d="M 2.421875 -11.765625 L 10.609375 -11.0625 C 10.773438 -10.925781 10.851562 -10.796875 10.84375 -10.671875 C 10.820312 -10.429688 10.742188 -10.21875 10.609375 -10.03125 L 3.59375 -10.640625 L 3.21875 -6.421875 L 9.78125 -6.328125 C 9.957031 -6.253906 10.039062 -6.125 10.03125 -5.9375 C 10 -5.632812 9.894531 -5.410156 9.71875 -5.265625 L 3.125 -5.375 L 2.734375 -0.8125 L 9.671875 -0.21875 C 9.773438 -0.132812 9.820312 0.015625 9.8125 0.234375 C 9.800781 0.429688 9.734375 0.632812 9.609375 0.84375 L 1.390625 0.140625 Z M 2.421875 -11.765625 "/></g></g></g><g fill="#000000" fill-opacity="1"><g transform="translate(197.828348, 87.093426)"><g/></g></g><g fill="#000000" fill-opacity="1"><g transform="translate(202.986168, 87.812624)"><g><path d="M 1.34375 -0.015625 L 5.03125 -11.109375 C 5.28125 -11.203125 5.441406 -11.238281 5.515625 -11.21875 C 5.734375 -11.15625 5.925781 -11.019531 6.09375 -10.8125 L 10.046875 0.1875 L 12.578125 -9.03125 C 13.046875 -9.070312 13.347656 -9.070312 13.484375 -9.03125 C 13.660156 -8.96875 13.773438 -8.847656 13.828125 -8.671875 L 10.671875 2.796875 C 10.429688 2.804688 10.179688 2.773438 9.921875 2.703125 C 9.773438 2.660156 9.660156 2.59375 9.578125 2.5 L 5.5625 -8.6875 L 2.515625 0.515625 C 2.117188 0.515625 1.8125 0.484375 1.59375 0.421875 C 1.414062 0.367188 1.332031 0.222656 1.34375 -0.015625 Z M 1.34375 -0.015625 "/></g></g></g><g fill="#000000" fill-opacity="1"><g transform="translate(214.345718, 90.898478)"><g><path d="M 11.359375 -1.8125 C 11.804688 -2.882812 11.960938 -3.957031 11.828125 -5.03125 C 11.703125 -6.113281 10.929688 -6.945312 9.515625 -7.53125 C 8.046875 -8.144531 6.929688 -8.160156 6.171875 -7.578125 C 5.421875 -6.992188 4.78125 -6.0625 4.25 -4.78125 C 3.675781 -3.394531 3.476562 -2.21875 3.65625 -1.25 C 3.832031 -0.289062 4.59375 0.46875 5.9375 1.03125 C 7.445312 1.65625 8.585938 1.671875 9.359375 1.078125 C 10.140625 0.484375 10.804688 -0.476562 11.359375 -1.8125 Z M 3.046875 -5.4375 C 3.671875 -6.945312 4.601562 -8.054688 5.84375 -8.765625 C 7.09375 -9.484375 8.519531 -9.507812 10.125 -8.84375 C 11.65625 -8.195312 12.617188 -7.160156 13.015625 -5.734375 C 13.421875 -4.304688 13.320312 -2.859375 12.71875 -1.390625 C 11.976562 0.359375 11.035156 1.597656 9.890625 2.328125 C 8.742188 3.054688 7.273438 3.046875 5.484375 2.296875 C 3.847656 1.617188 2.859375 0.578125 2.515625 -0.828125 C 2.171875 -2.242188 2.347656 -3.78125 3.046875 -5.4375 Z M 3.046875 -5.4375 "/></g></g></g><g fill="#000000" fill-opacity="1"><g transform="translate(224.905041, 95.121194)"><g><path d="M 1.296875 0.34375 L 7.828125 -9.34375 C 8.234375 -9.289062 8.578125 -9.179688 8.859375 -9.015625 C 9.054688 -8.898438 9.1875 -8.726562 9.25 -8.5 L 7.53125 2.375 L 16.296875 -4.28125 C 16.753906 -4.195312 17.085938 -4.097656 17.296875 -3.984375 C 17.523438 -3.828125 17.609375 -3.59375 17.546875 -3.28125 L 12.109375 7.0625 C 11.722656 6.925781 11.445312 6.8125 11.28125 6.71875 C 11.070312 6.582031 10.972656 6.398438 10.984375 6.171875 L 15.546875 -2.234375 L 7.328125 4.0625 C 7.097656 4.113281 6.851562 4.0625 6.59375 3.90625 C 6.332031 3.75 6.160156 3.550781 6.078125 3.3125 L 7.71875 -6.859375 L 2.28125 1.125 C 1.9375 1.0625 1.65625 0.960938 1.4375 0.828125 C 1.28125 0.734375 1.234375 0.570312 1.296875 0.34375 Z M 1.296875 0.34375 "/></g></g></g><g fill="#000000" fill-opacity="1"><g transform="translate(237.525261, 102.950988)"><g><path d="M 1.25 0.640625 L 8.203125 -8.671875 C 8.640625 -8.640625 8.9375 -8.566406 9.09375 -8.453125 C 9.257812 -8.328125 9.3125 -8.15625 9.25 -7.9375 L 2.375 1.25 C 1.875 1.207031 1.550781 1.128906 1.40625 1.015625 C 1.269531 0.921875 1.21875 0.796875 1.25 0.640625 Z M 1.25 0.640625 "/></g></g></g><g fill="#000000" fill-opacity="1"><g transform="translate(240.89495, 105.224344)"><g><path d="M 1.21875 0.578125 L 9.453125 -7.71875 C 9.722656 -7.6875 9.882812 -7.644531 9.9375 -7.59375 C 10.101562 -7.4375 10.210938 -7.222656 10.265625 -6.953125 L 8.90625 4.640625 L 15.265625 -2.484375 C 15.710938 -2.304688 15.988281 -2.171875 16.09375 -2.078125 C 16.21875 -1.941406 16.265625 -1.78125 16.234375 -1.59375 L 8.296875 7.265625 C 8.085938 7.160156 7.882812 7.019531 7.6875 6.84375 C 7.570312 6.738281 7.492188 6.628906 7.453125 6.515625 L 8.84375 -5.28125 L 2.015625 1.59375 C 1.671875 1.40625 1.414062 1.238281 1.25 1.09375 C 1.113281 0.96875 1.101562 0.796875 1.21875 0.578125 Z M 1.21875 0.578125 "/></g></g></g><g fill="#000000" fill-opacity="1"><g transform="translate(249.685606, 113.062722)"><g><path d="M 12.40625 -2.515625 L 6.859375 -0.640625 L 9.75 2.25 Z M 9.03125 3.53125 L 5.390625 -0.140625 L 1.421875 1.265625 C 1.035156 0.972656 0.757812 0.734375 0.59375 0.546875 C 0.46875 0.390625 0.414062 0.234375 0.4375 0.078125 L 12.125 -4.015625 C 12.90625 -3.492188 13.40625 -3.109375 13.625 -2.859375 C 13.78125 -2.671875 13.867188 -2.472656 13.890625 -2.265625 L 7.71875 8.578125 C 7.332031 8.304688 7.039062 8.054688 6.84375 7.828125 C 6.6875 7.660156 6.644531 7.539062 6.71875 7.46875 L 6.734375 7.453125 Z M 9.03125 3.53125 "/></g></g></g></svg>